<svg width="24" height="24" viewBox="0 0 24 24" fill="none" xmlns="http://www.w3.org/2000/svg">
<path d="M22 5C22 4.44772 21.5523 4 21 4H3C2.44772 4 2 4.44772 2 5C2 5.55228 2.44772 6 3 6H21C21.5523 6 22 5.55228 22 5Z" fill="black"/>
<path d="M22 10C22 9.44772 21.5523 9 21 9H7C6.44771 9 6 9.44772 6 10C6 10.5523 6.44771 11 7 11H21C21.5523 11 22 10.5523 22 10Z" fill="black"/>
<path d="M21 19C21.5523 19 22 19.4477 22 20C22 20.5523 21.5523 21 21 21H7C6.44771 21 6 20.5523 6 20C6 19.4477 6.44771 19 7 19H21Z" fill="black"/>
<path d="M22 15C22 14.4477 21.5523 14 21 14H3C2.44772 14 2 14.4477 2 15C2 15.5523 2.44772 16 3 16H21C21.5523 16 22 15.5523 22 15Z" fill="black"/>
</svg>
