<svg width="24" height="24" viewBox="0 0 24 24" fill="none" xmlns="http://www.w3.org/2000/svg">
<path fill-rule="evenodd" clip-rule="evenodd" d="M8 5V4C8 2.34315 9.34315 1 11 1H13C14.6569 1 16 2.34315 16 4V5H17C19.2091 5 21 6.79086 21 9V16C21 19.3137 18.3137 22 15 22H9C5.68629 22 3 19.3137 3 16V9C3 6.79086 4.79086 5 7 5H8ZM10 4C10 3.44772 10.4477 3 11 3H13C13.5523 3 14 3.44772 14 4V5H10V4ZM7 7H17C18.1046 7 19 7.89543 19 9V16C19 18.2091 17.2091 20 15 20H9C6.79086 20 5 18.2091 5 16V9C5 7.89543 5.89543 7 7 7Z" fill="black"/>
</svg>
