<svg width="24" height="24" viewBox="0 0 24 24" fill="none" xmlns="http://www.w3.org/2000/svg">
<path fill-rule="evenodd" clip-rule="evenodd" d="M4 2C2.89543 2 2 2.89543 2 4V6C2 7.10457 2.89543 8 4 8H6C7.10457 8 8 7.10457 8 6V4C8 2.89543 7.10457 2 6 2H4ZM6 4H4L4 6H6V4Z" fill="black"/>
<path fill-rule="evenodd" clip-rule="evenodd" d="M4 9C2.89543 9 2 9.89543 2 11V13C2 14.1046 2.89543 15 4 15H6C7.10457 15 8 14.1046 8 13V11C8 9.89543 7.10457 9 6 9H4ZM6 11H4L4 13H6V11Z" fill="black"/>
<path fill-rule="evenodd" clip-rule="evenodd" d="M2 18C2 16.8954 2.89543 16 4 16H6C7.10457 16 8 16.8954 8 18V20C8 21.1046 7.10457 22 6 22H4C2.89543 22 2 21.1046 2 20V18ZM4 18H6V20H4L4 18Z" fill="black"/>
<path fill-rule="evenodd" clip-rule="evenodd" d="M11 2C9.89543 2 9 2.89543 9 4V6C9 7.10457 9.89543 8 11 8H13C14.1046 8 15 7.10457 15 6V4C15 2.89543 14.1046 2 13 2H11ZM13 4H11V6H13V4Z" fill="black"/>
<path fill-rule="evenodd" clip-rule="evenodd" d="M9 11C9 9.89543 9.89543 9 11 9H13C14.1046 9 15 9.89543 15 11V13C15 14.1046 14.1046 15 13 15H11C9.89543 15 9 14.1046 9 13V11ZM11 11H13V13H11V11Z" fill="black"/>
<path fill-rule="evenodd" clip-rule="evenodd" d="M11 16C9.89543 16 9 16.8954 9 18V20C9 21.1046 9.89543 22 11 22H13C14.1046 22 15 21.1046 15 20V18C15 16.8954 14.1046 16 13 16H11ZM13 18H11V20H13V18Z" fill="black"/>
<path fill-rule="evenodd" clip-rule="evenodd" d="M16 4C16 2.89543 16.8954 2 18 2H20C21.1046 2 22 2.89543 22 4V6C22 7.10457 21.1046 8 20 8H18C16.8954 8 16 7.10457 16 6V4ZM18 4H20V6H18V4Z" fill="black"/>
<path fill-rule="evenodd" clip-rule="evenodd" d="M18 9C16.8954 9 16 9.89543 16 11V13C16 14.1046 16.8954 15 18 15H20C21.1046 15 22 14.1046 22 13V11C22 9.89543 21.1046 9 20 9H18ZM20 11H18V13H20V11Z" fill="black"/>
<path fill-rule="evenodd" clip-rule="evenodd" d="M16 18C16 16.8954 16.8954 16 18 16H20C21.1046 16 22 16.8954 22 18V20C22 21.1046 21.1046 22 20 22H18C16.8954 22 16 21.1046 16 20V18ZM18 18H20V20H18V18Z" fill="black"/>
</svg>
