<svg width="24" height="24" viewBox="0 0 24 24" fill="none" xmlns="http://www.w3.org/2000/svg">
<path d="M8 5C8.55228 5 9 4.55229 9 4C9 3.44772 8.55229 3 8 3H6C4.34315 3 3 4.34315 3 6V18C3 19.6569 4.34315 21 6 21H8C8.55229 21 9 20.5523 9 20C9 19.4477 8.55229 19 8 19H6C5.44772 19 5 18.5523 5 18L5 6C5 5.44772 5.44772 5 6 5L8 5Z" fill="black"/>
<path d="M16 5C15.4477 5 15 4.55229 15 4C15 3.44772 15.4477 3 16 3H18C19.6569 3 21 4.34315 21 6V18C21 19.6569 19.6569 21 18 21H16C15.4477 21 15 20.5523 15 20C15 19.4477 15.4477 19 16 19H18C18.5523 19 19 18.5523 19 18V6C19 5.44772 18.5523 5 18 5L16 5Z" fill="black"/>
</svg>
