<svg width="24" height="24" viewBox="0 0 24 24" fill="none" xmlns="http://www.w3.org/2000/svg">
<path fill-rule="evenodd" clip-rule="evenodd" d="M7.5 13.5C7.5 11.0147 9.51472 9 12 9C14.4853 9 16.5 11.0147 16.5 13.5C16.5 15.9853 14.4853 18 12 18C9.51472 18 7.5 15.9853 7.5 13.5ZM12 16C10.6193 16 9.5 14.8807 9.5 13.5C9.5 12.1193 10.6193 11 12 11C13.3807 11 14.5 12.1193 14.5 13.5C14.5 14.8807 13.3807 16 12 16Z" fill="black"/>
<path fill-rule="evenodd" clip-rule="evenodd" d="M11.3333 3C9.60488 3 8.1837 4.31556 8.01646 6H8C4.68629 6 2 8.68629 2 12V17C2 19.2091 3.79086 21 6 21H18C20.2091 21 22 19.2091 22 17V12C22 8.68629 19.3137 6 16 6H15.9835C15.8163 4.31556 14.3951 3 12.6667 3H11.3333ZM12.6667 5H11.3333C10.7121 5 10.19 5.42492 10.042 6H13.958C13.81 5.42492 13.2879 5 12.6667 5ZM8 8C5.79086 8 4 9.79086 4 12V17C4 18.1046 4.89543 19 6 19H18C19.1046 19 20 18.1046 20 17V12C20 9.79086 18.2091 8 16 8H8Z" fill="black"/>
</svg>
