<svg width="24" height="24" viewBox="0 0 24 24" fill="none" xmlns="http://www.w3.org/2000/svg">
<path d="M10.2929 15.7071C10.494 15.9082 10.7713 16.0142 11.0553 15.9985C11.3393 15.9827 11.6032 15.8468 11.7809 15.6247L15.7809 10.6247C16.1259 10.1934 16.056 9.56414 15.6247 9.21913C15.1934 8.87412 14.5641 8.94404 14.2191 9.37531L10.9171 13.5029L9.70711 12.2929C9.31658 11.9024 8.68342 11.9024 8.29289 12.2929C7.90237 12.6834 7.90237 13.3166 8.29289 13.7071L10.2929 15.7071Z" fill="black"/>
<path fill-rule="evenodd" clip-rule="evenodd" d="M2 12C2 6.47715 6.47715 2 12 2C17.5228 2 22 6.47715 22 12C22 17.5228 17.5228 22 12 22C6.47715 22 2 17.5228 2 12ZM12 20C7.58172 20 4 16.4183 4 12C4 7.58172 7.58172 4 12 4C16.4183 4 20 7.58172 20 12C20 16.4183 16.4183 20 12 20Z" fill="black"/>
</svg>
