<svg width="24" height="24" viewBox="0 0 24 24" fill="none" xmlns="http://www.w3.org/2000/svg">
<path fill-rule="evenodd" clip-rule="evenodd" d="M7.24702 10.0003C7.26559 10.0001 7.28418 10 7.30278 10H7.92108C8.58433 10 9.20587 9.67639 9.58622 9.13303L9.94436 8.62141C11.5248 6.36358 14.4013 5.41302 17.0159 6.28455C18.7539 6.86387 20.1486 8.17897 20.829 9.8799L21.0337 10.3918C21.672 11.9875 22 13.6905 22 15.4092V15.8787C22 17.5022 21.3551 19.0591 20.2071 20.2071C19.0591 21.3551 17.5022 22 15.8787 22H8.23607C5.87402 22 3.7147 20.6655 2.65836 18.5528C2.2254 17.6869 2 16.732 2 15.7639V15.3028C2 14.2559 2.30988 13.2324 2.8906 12.3613C3.77452 11.0354 5.20143 10.1854 6.76848 10.0269C6.84279 10.0093 6.92031 10 7 10L7.05125 9.99998C7.1126 9.99994 7.178 9.99991 7.24702 10.0003ZM11.5828 9.76833C12.6558 8.23557 14.6085 7.59026 16.3835 8.18192C17.5633 8.5752 18.5102 9.46798 18.972 10.6227L19.1768 11.1345C19.7206 12.4941 20 13.9449 20 15.4092V15.8787C20 16.9717 19.5658 18.02 18.7929 18.7929C18.02 19.5658 16.9717 20 15.8787 20H8.23607C6.63156 20 5.16477 19.0935 4.44721 17.6584C4.15311 17.0702 4 16.4216 4 15.7639V15.3028C4 14.6507 4.19301 14.0133 4.5547 13.4707C5.15307 12.5732 6.15095 12.0258 7.22619 12.0009C8.3193 12.0111 9.44843 12.1329 10.1056 13.4472C10.3526 13.9412 10.9532 14.1414 11.4472 13.8944C11.9412 13.6474 12.1414 13.0468 11.8944 12.5528C11.5411 11.8461 11.098 11.335 10.6182 10.9654C10.8434 10.7628 11.0473 10.5334 11.2247 10.28L11.5828 9.76833Z" fill="black"/>
</svg>
