<svg width="24" height="24" viewBox="0 0 24 24" fill="none" xmlns="http://www.w3.org/2000/svg">
<path d="M6.10557 11.5528C5.96481 11.8343 5.96481 12.1657 6.10557 12.4472L7.10557 14.4472C7.35256 14.9412 7.95324 15.1414 8.44721 14.8944C8.94119 14.6474 9.14142 14.0468 8.89443 13.5528L8.11803 12L8.89443 10.4472C9.14142 9.95324 8.94119 9.35256 8.44721 9.10557C7.95324 8.85858 7.35256 9.05881 7.10557 9.55279L6.10557 11.5528Z" fill="black"/>
<path d="M17.8944 12.4472L16.8944 14.4472C16.6474 14.9412 16.0468 15.1414 15.5528 14.8944C15.0588 14.6474 14.8586 14.0468 15.1056 13.5528L15.882 12L15.1056 10.4472C14.8586 9.95324 15.0588 9.35256 15.5528 9.10557C16.0468 8.85858 16.6474 9.05881 16.8944 9.55279L17.8944 11.5528C18.0352 11.8343 18.0352 12.1657 17.8944 12.4472Z" fill="black"/>
<path d="M10.0299 15.7575C9.89591 16.2933 10.2217 16.8362 10.7575 16.9701C11.2933 17.1041 11.8362 16.7783 11.9701 16.2425L13.9701 8.24254C14.1041 7.70674 13.7783 7.16381 13.2425 7.02986C12.7067 6.89591 12.1638 7.22167 12.0299 7.75746L10.0299 15.7575Z" fill="black"/>
<path fill-rule="evenodd" clip-rule="evenodd" d="M2 10C2 5.58172 5.58172 2 10 2H14C18.4183 2 22 5.58172 22 10V14C22 18.4183 18.4183 22 14 22H10C5.58172 22 2 18.4183 2 14V10ZM10 4H14C17.3137 4 20 6.68629 20 10V14C20 17.3137 17.3137 20 14 20H10C6.68629 20 4 17.3137 4 14V10C4 6.68629 6.68629 4 10 4Z" fill="black"/>
</svg>
