<svg width="24" height="24" viewBox="0 0 24 24" fill="none" xmlns="http://www.w3.org/2000/svg">
<path d="M15.2929 15.2929C14.9024 15.6834 14.9024 16.3166 15.2929 16.7071C15.6834 17.0976 16.3166 17.0976 16.7071 16.7071L20.7071 12.7071C21.0976 12.3166 21.0976 11.6834 20.7071 11.2929L16.7071 7.29289C16.3166 6.90237 15.6834 6.90237 15.2929 7.29289C14.9024 7.68342 14.9024 8.31658 15.2929 8.70711L18.5858 12L15.2929 15.2929Z" fill="black"/>
<path d="M8.70711 8.70711C9.09763 8.31658 9.09763 7.68342 8.70711 7.29289C8.31658 6.90237 7.68342 6.90237 7.29289 7.29289L3.29289 11.2929C2.90237 11.6834 2.90237 12.3166 3.29289 12.7071L7.29289 16.7071C7.68342 17.0976 8.31658 17.0976 8.70711 16.7071C9.09763 16.3166 9.09763 15.6834 8.70711 15.2929L5.41421 12L8.70711 8.70711Z" fill="black"/>
</svg>
