<svg width="24" height="24" viewBox="0 0 24 24" fill="none" xmlns="http://www.w3.org/2000/svg">
<path d="M9 5C9 5.55228 9.44772 6 10 6C10.5523 6 11 5.55228 11 5V3C11 2.44772 10.5523 2 10 2C9.44772 2 9 2.44772 9 3V5Z" fill="black"/>
<path d="M6 6C6 6.55228 6.44772 7 7 7C7.55229 7 8 6.55228 8 6V5C8 4.44772 7.55228 4 7 4C6.44772 4 6 4.44772 6 5V6Z" fill="black"/>
<path fill-rule="evenodd" clip-rule="evenodd" d="M2 9C2 8.44772 2.44772 8 3 8H18C18.5523 8 19 8.44772 19 9C19 9.55228 18.5523 10 18 10V11H20C21.1046 11 22 11.8954 22 13V15.382C22 16.1395 21.572 16.832 20.8944 17.1708L18 18.618V19C18 20.6569 16.6569 22 15 22H6C4.34315 22 3 20.6569 3 19V10C2.44772 10 2 9.55228 2 9ZM5 10H16V17.9799C15.9997 17.9938 15.9997 18.0077 16 18.0217V19C16 19.5523 15.5523 20 15 20H6C5.44772 20 5 19.5523 5 19V10ZM20 15.382V13H18V16.382L20 15.382Z" fill="black"/>
<path d="M14 7C13.4477 7 13 6.55228 13 6V4C13 3.44772 13.4477 3 14 3C14.5523 3 15 3.44772 15 4V6C15 6.55228 14.5523 7 14 7Z" fill="black"/>
</svg>
