<svg width="24" height="24" viewBox="0 0 24 24" fill="none" xmlns="http://www.w3.org/2000/svg">
<path d="M7 12C6.44772 12 6 12.4477 6 13C6 13.5523 6.44772 14 7 14H9C9.55228 14 10 13.5523 10 13C10 12.4477 9.55228 12 9 12H7Z" fill="black"/>
<path fill-rule="evenodd" clip-rule="evenodd" d="M6 2C3.79086 2 2 3.79086 2 6V14C2 16.2091 3.79086 18 6 18H18C20.2091 18 22 16.2091 22 14V6C22 3.79086 20.2091 2 18 2H6ZM18 4H6C4.89543 4 4 4.89543 4 6V7H20V6C20 4.89543 19.1046 4 18 4ZM4 14V10H20V14C20 15.1046 19.1046 16 18 16H6C4.89543 16 4 15.1046 4 14Z" fill="black"/>
</svg>
