<svg width="24" height="24" viewBox="0 0 24 24" fill="none" xmlns="http://www.w3.org/2000/svg">
<path d="M14 9C14 8.44772 14.4477 8 15 8C15.5523 8 16 8.44772 16 9C16 9.55228 15.5523 10 15 10C14.4477 10 14 9.55228 14 9Z" fill="black"/>
<path d="M15 11C14.4477 11 14 11.4477 14 12C14 12.5523 14.4477 13 15 13C15.5523 13 16 12.5523 16 12C16 11.4477 15.5523 11 15 11Z" fill="black"/>
<path d="M8 12C8 11.4477 8.44772 11 9 11C9.55228 11 10 11.4477 10 12C10 12.5523 9.55228 13 9 13C8.44772 13 8 12.5523 8 12Z" fill="black"/>
<path d="M9 14C8.44772 14 8 14.4477 8 15C8 15.5523 8.44772 16 9 16C9.55228 16 10 15.5523 10 15C10 14.4477 9.55228 14 9 14Z" fill="black"/>
<path d="M8 9C8 8.44772 8.44772 8 9 8C9.55228 8 10 8.44772 10 9C10 9.55228 9.55228 10 9 10C8.44772 10 8 9.55228 8 9Z" fill="black"/>
<path d="M15 14C14.4477 14 14 14.4477 14 15C14 15.5523 14.4477 16 15 16C15.5523 16 16 15.5523 16 15C16 14.4477 15.5523 14 15 14Z" fill="black"/>
<path fill-rule="evenodd" clip-rule="evenodd" d="M10 2C5.58172 2 2 5.58172 2 10V14C2 18.4183 5.58172 22 10 22H14C18.4183 22 22 18.4183 22 14V10C22 5.58172 18.4183 2 14 2H10ZM14 4H10C6.68629 4 4 6.68629 4 10V14C4 17.3137 6.68629 20 10 20H14C17.3137 20 20 17.3137 20 14V10C20 6.68629 17.3137 4 14 4Z" fill="black"/>
</svg>
