<svg width="24" height="24" viewBox="0 0 24 24" fill="none" xmlns="http://www.w3.org/2000/svg">
<path d="M3 4C2.44772 4 2 4.44772 2 5C2 5.55228 2.44772 6 3 6H21C21.5523 6 22 5.55228 22 5C22 4.44772 21.5523 4 21 4H3Z" fill="black"/>
<path d="M5 11C4.44772 11 4 11.4477 4 12C4 12.5523 4.44772 13 5 13H19C19.5523 13 20 12.5523 20 12C20 11.4477 19.5523 11 19 11H5Z" fill="black"/>
<path d="M7 19C7 18.4477 7.44772 18 8 18H16C16.5523 18 17 18.4477 17 19C17 19.5523 16.5523 20 16 20H8C7.44772 20 7 19.5523 7 19Z" fill="black"/>
</svg>
