<svg width="24" height="24" viewBox="0 0 24 24" fill="none" xmlns="http://www.w3.org/2000/svg">
<path d="M15.9999 8.00001C15.4477 8.00001 14.9999 8.44773 14.9999 9.00001C14.9999 9.5523 15.4477 10 15.9999 10C16.5522 10 16.9999 9.5523 16.9999 9.00001C16.9999 8.44773 16.5522 8.00001 15.9999 8.00001Z" fill="black"/>
<path fill-rule="evenodd" clip-rule="evenodd" d="M8.21154 9.0016C8.25917 9.00054 8.3069 9.00001 8.3547 9.00001H8.6466C9.15774 9.00001 9.63506 8.74456 9.91859 8.31926L11.2818 6.27451C12.6442 4.23084 15.235 3.39518 17.5348 4.2576C19.8009 5.10739 21.0956 7.31086 20.956 9.54185L21.7071 10.2929C21.993 10.5789 22.0786 11.009 21.9238 11.3827C21.769 11.7564 21.4044 12 20.9999 12H20.1661L21.4312 14.1085C22.5055 15.899 22.2234 18.1908 20.7469 19.6672C19.8936 20.5206 18.7362 21 17.5293 21H8.06444C6.47735 21 4.95526 20.3695 3.83302 19.2473L3.66408 19.0784C1.94364 17.3579 1.51712 14.7296 2.60522 12.5534C3.60626 10.5513 5.56821 9.22717 7.77005 9.02657C7.84386 9.0092 7.92083 9.00001 7.99994 9.00001C8.07122 9.00001 8.14175 9.00054 8.21154 9.0016ZM12.9459 7.38391C13.7927 6.11363 15.4031 5.5942 16.8326 6.13026C18.7539 6.85074 19.5517 9.13672 18.496 10.8962L18.1425 11.4855C17.9524 11.8022 17.9524 12.1978 18.1425 12.5145L19.7162 15.1375C20.3184 16.141 20.1602 17.4255 19.3327 18.253C18.8544 18.7313 18.2057 19 17.5293 19H8.06444C7.00778 19 5.9944 18.5803 5.24723 17.8331L5.0783 17.6642C3.96657 16.5524 3.69096 14.854 4.39408 13.4478C5.12411 11.9877 6.59604 11.0511 8.22051 11.002C9.48195 11.0256 10.2028 11.2538 10.6952 11.5821C11.2228 11.9337 11.6268 12.4899 12.1055 13.4472C12.3525 13.9412 12.9532 14.1414 13.4472 13.8944C13.9411 13.6475 14.1414 13.0468 13.8944 12.5528C13.3731 11.5102 12.7771 10.5663 11.8046 9.91796C11.6744 9.83111 11.5397 9.75112 11.4005 9.6777C11.4645 9.59779 11.5253 9.51473 11.5827 9.42866L12.9459 7.38391Z" fill="black"/>
</svg>
