<svg width="24" height="24" viewBox="0 0 24 24" fill="none" xmlns="http://www.w3.org/2000/svg">
<path d="M13 9V12C13 12.5523 12.5523 13 12 13C11.4477 13 11 12.5523 11 12V9C11 8.44772 11.4477 8 12 8C12.5523 8 13 8.44772 13 9Z" fill="black"/>
<path d="M13 15C13 15.5523 12.5523 16 12 16C11.4477 16 11 15.5523 11 15C11 14.4477 11.4477 14 12 14C12.5523 14 13 14.4477 13 15Z" fill="black"/>
<path fill-rule="evenodd" clip-rule="evenodd" d="M6.82843 20.8284L3.17157 17.1716C2.42143 16.4214 2 15.404 2 14.3431V9.65685C2 8.59599 2.42143 7.57857 3.17157 6.82843L6.82843 3.17157C7.57857 2.42143 8.59599 2 9.65685 2H14.3431C15.404 2 16.4214 2.42143 17.1716 3.17157L20.8284 6.82843C21.5786 7.57857 22 8.59599 22 9.65685V14.3431C22 15.404 21.5786 16.4214 20.8284 17.1716L17.1716 20.8284C16.4214 21.5786 15.404 22 14.3431 22H9.65685C8.59599 22 7.57857 21.5786 6.82843 20.8284ZM8.24264 19.4142L4.58579 15.7574C4.21071 15.3823 4 14.8736 4 14.3431V9.65685C4 9.12642 4.21071 8.61771 4.58579 8.24264L8.24264 4.58579C8.61771 4.21071 9.12642 4 9.65685 4H14.3431C14.8736 4 15.3823 4.21071 15.7574 4.58579L19.4142 8.24264C19.7893 8.61771 20 9.12642 20 9.65685V14.3431C20 14.8736 19.7893 15.3823 19.4142 15.7574L15.7574 19.4142C15.3823 19.7893 14.8736 20 14.3431 20H9.65685C9.12642 20 8.61771 19.7893 8.24264 19.4142Z" fill="black"/>
</svg>
