<svg width="24" height="24" viewBox="0 0 24 24" fill="none" xmlns="http://www.w3.org/2000/svg">
<path fill-rule="evenodd" clip-rule="evenodd" d="M16 12C16 14.2091 14.2091 16 12 16C9.79086 16 8 14.2091 8 12C8 9.79086 9.79086 8 12 8C14.2091 8 16 9.79086 16 12ZM14 12C14 13.1046 13.1046 14 12 14C10.8954 14 10 13.1046 10 12C10 10.8954 10.8954 10 12 10C13.1046 10 14 10.8954 14 12Z" fill="black"/>
<path fill-rule="evenodd" clip-rule="evenodd" d="M21 12C21 15 17 19 12 19C7 19 3 15 3 12C3 9 7 5 12 5C17 5 21 9 21 12ZM19 12C19 12.6904 18.4611 13.9323 17.0831 15.0982C15.7704 16.209 13.9667 17 12 17C10.0333 17 8.22957 16.209 6.91688 15.0982C5.53892 13.9323 5 12.6904 5 12C5 11.3096 5.53892 10.0677 6.91688 8.90177C8.22957 7.79104 10.0333 7 12 7C13.9667 7 15.7704 7.79104 17.0831 8.90177C18.4611 10.0677 19 11.3096 19 12Z" fill="black"/>
</svg>
