<svg width="24" height="24" viewBox="0 0 24 24" fill="none" xmlns="http://www.w3.org/2000/svg">
<path fill-rule="evenodd" clip-rule="evenodd" d="M2.00002 10.9983V7C2.00002 5.34315 3.34316 4 5.00002 4H9.92965C10.9327 4 11.8694 4.5013 12.4258 5.3359L13.2383 6.5547C13.4238 6.8329 13.736 7 14.0704 7H19C20.6569 7 22 8.34315 22 10V10.9983C22.5472 11.6091 22.8459 12.4423 22.7471 13.3313L22.1916 18.3313C22.0228 19.8506 20.7386 21 19.2099 21H4.7901C3.26145 21 1.97726 19.8506 1.80845 18.3313L1.2529 13.3313C1.15412 12.4423 1.45288 11.6091 2.00002 10.9983ZM5.00002 6H9.92965C10.264 6 10.5762 6.1671 10.7617 6.4453L11.5742 7.6641C12.1306 8.4987 13.0673 9 14.0704 9H19C19.5523 9 20 9.44772 20 10H4.00002V7C4.00002 6.44772 4.44773 6 5.00002 6ZM4.23455 12C3.63854 12 3.17485 12.5181 3.24066 13.1104L3.79622 18.1104C3.85249 18.6169 4.28055 19 4.7901 19H19.2099C19.7195 19 20.1475 18.6169 20.2038 18.1104L20.7594 13.1104C20.8252 12.5181 20.3615 12 19.7655 12H4.23455Z" fill="black"/>
</svg>
