<svg width="24" height="24" viewBox="0 0 24 24" fill="none" xmlns="http://www.w3.org/2000/svg">
<path fill-rule="evenodd" clip-rule="evenodd" d="M9.92963 4H5C3.34315 4 2 5.34315 2 7V18C2 19.6569 3.34315 21 5 21H19C20.6569 21 22 19.6569 22 18V10C22 8.34315 20.6569 7 19 7H14.0704C13.736 7 13.4238 6.8329 13.2383 6.5547L12.4258 5.3359C11.8694 4.5013 10.9327 4 9.92963 4ZM5 6H9.92963C10.264 6 10.5762 6.1671 10.7617 6.4453L11.5742 7.6641C11.7503 7.92821 11.9644 8.15894 12.2067 8.35097C11.6792 8.76919 11.0231 9 10.3431 9H4V7C4 6.44772 4.44772 6 5 6ZM4 11V18C4 18.5523 4.44772 19 5 19H19C19.5523 19 20 18.5523 20 18V10C20 9.44772 19.5523 9 19 9H14.4142L13.8787 9.53553C12.941 10.4732 11.6692 11 10.3431 11H4Z" fill="black"/>
</svg>
