<svg width="24" height="24" viewBox="0 0 24 24" fill="none" xmlns="http://www.w3.org/2000/svg">
<path fill-rule="evenodd" clip-rule="evenodd" d="M6.07996 7.79974C7.2032 7.36618 8 6.27614 8 5C8 3.34315 6.65685 2 5 2C3.34315 2 2 3.34315 2 5C2 6.30622 2.83481 7.41746 4 7.82929V16.1707C2.83481 16.5825 2 17.6938 2 19C2 20.6569 3.34315 22 5 22C6.65685 22 8 20.6569 8 19C8 17.6938 7.16519 16.5825 6 16.1707V11.4722C7.06151 12.4223 8.46329 13 10 13H14C15.6569 13 17 14.3431 17 16V16.1707C15.8348 16.5825 15 17.6938 15 19C15 20.6569 16.3431 22 18 22C19.6569 22 21 20.6569 21 19C21 17.6938 20.1652 16.5825 19 16.1707V16C19 13.2386 16.7614 11 14 11H10C8.06474 11 6.45048 9.62566 6.07996 7.79974ZM6 5C6 5.55228 5.55228 6 5 6C4.44772 6 4 5.55228 4 5C4 4.44772 4.44772 4 5 4C5.55228 4 6 4.44772 6 5ZM18 18C17.4477 18 17 18.4477 17 19C17 19.5523 17.4477 20 18 20C18.5523 20 19 19.5523 19 19C19 18.4477 18.5523 18 18 18ZM4 19C4 18.4477 4.44772 18 5 18C5.55228 18 6 18.4477 6 19C6 19.5523 5.55228 20 5 20C4.44772 20 4 19.5523 4 19Z" fill="black"/>
</svg>
