<svg width="24" height="24" viewBox="0 0 24 24" fill="none" xmlns="http://www.w3.org/2000/svg">
<path d="M10.348 12.6432L7.47812 17.235C7.26998 17.568 7.50941 18 7.90212 18H16.044C16.4477 18 16.685 17.5464 16.4547 17.2148L14.8342 14.8813C14.6588 14.6287 14.2991 14.5928 14.0773 14.8058L13.6727 15.1942C13.4509 15.4072 13.0912 15.3713 12.9158 15.1187L11.1827 12.623C10.9779 12.3281 10.5383 12.3388 10.348 12.6432Z" fill="black"/>
<path d="M14 13C14.5523 13 15 12.5523 15 12C15 11.4477 14.5523 11 14 11C13.4477 11 13 11.4477 13 12C13 12.5523 13.4477 13 14 13Z" fill="black"/>
<path fill-rule="evenodd" clip-rule="evenodd" d="M21 18C21 20.2091 19.2091 22 17 22H7C4.79086 22 3 20.2091 3 18V6C3 3.79086 4.79086 2 7 2H14.1716C14.702 2 15.2107 2.21071 15.5858 2.58579L20.4142 7.41421C20.7893 7.78929 21 8.29799 21 8.82843V18ZM17 20H7C5.89543 20 5 19.1046 5 18V6C5 4.89543 5.89543 4 7 4H13V7C13 8.65685 14.3431 10 16 10H19V18C19 19.1046 18.1046 20 17 20ZM18.1716 8H16C15.4477 8 15 7.55228 15 7V4.82843L18.1716 8Z" fill="black"/>
</svg>
