<svg width="24" height="24" viewBox="0 0 24 24" fill="none" xmlns="http://www.w3.org/2000/svg">
<path d="M3 4C2.44772 4 2 4.44772 2 5C2 5.55228 2.44772 6 3 6H21C21.5523 6 22 5.55228 22 5C22 4.44772 21.5523 4 21 4H3Z" fill="black"/>
<path d="M9 9C8.44772 9 8 9.44772 8 10C8 10.5523 8.44772 11 9 11H21C21.5523 11 22 10.5523 22 10C22 9.44772 21.5523 9 21 9H9Z" fill="black"/>
<path d="M2 20C2 19.4477 2.44772 19 3 19H21C21.5523 19 22 19.4477 22 20C22 20.5523 21.5523 21 21 21H3C2.44772 21 2 20.5523 2 20Z" fill="black"/>
<path d="M9 14C8.44772 14 8 14.4477 8 15C8 15.5523 8.44772 16 9 16H21C21.5523 16 22 15.5523 22 15C22 14.4477 21.5523 14 21 14H9Z" fill="black"/>
<path d="M5.6 11.7L2.8 9.6C2.47038 9.35279 2 9.58798 2 10V15C2 15.412 2.47038 15.6472 2.8 15.4L5.6 13.3C5.85181 13.1111 6 12.8148 6 12.5C6 12.1852 5.85181 11.8889 5.6 11.7Z" fill="black"/>
</svg>
