<svg width="24" height="24" viewBox="0 0 24 24" fill="none" xmlns="http://www.w3.org/2000/svg">
<path fill-rule="evenodd" clip-rule="evenodd" d="M2 6C2 3.79086 3.79086 2 6 2H18C20.2091 2 22 3.79086 22 6V7C22 9.20914 20.2091 11 18 11H6C3.79086 11 2 9.20914 2 7V6ZM6 4H18C19.1046 4 20 4.89543 20 6V7C20 8.10457 19.1046 9 18 9H6C4.89543 9 4 8.10457 4 7V6C4 4.89543 4.89543 4 6 4Z" fill="black"/>
<path fill-rule="evenodd" clip-rule="evenodd" d="M2 17C2 14.7909 3.79086 13 6 13H18C20.2091 13 22 14.7909 22 17V18C22 20.2091 20.2091 22 18 22H6C3.79086 22 2 20.2091 2 18V17ZM6 15H18C19.1046 15 20 15.8954 20 17V18C20 19.1046 19.1046 20 18 20H6C4.89543 20 4 19.1046 4 18V17C4 15.8954 4.89543 15 6 15Z" fill="black"/>
</svg>
