<svg width="24" height="24" viewBox="0 0 24 24" fill="none" xmlns="http://www.w3.org/2000/svg">
<path d="M12 15C11.4477 15 11 15.4477 11 16C11 16.5523 11.4477 17 12 17C12.5523 17 13 16.5523 13 16C13 15.4477 12.5523 15 12 15Z" fill="black"/>
<path fill-rule="evenodd" clip-rule="evenodd" d="M17 7V10C19.2091 10 21 11.7909 21 14V18C21 20.2091 19.2091 22 17 22H7C4.79086 22 3 20.2091 3 18V14C3 11.7909 4.79086 10 7 10V7C7 4.23858 9.23858 2 12 2C14.7614 2 17 4.23858 17 7ZM12 4C10.3431 4 9 5.34315 9 7V10H15V7C15 5.34315 13.6569 4 12 4ZM7 12C5.89543 12 5 12.8954 5 14V18C5 19.1046 5.89543 20 7 20H17C18.1046 20 19 19.1046 19 18V14C19 12.8954 18.1046 12 17 12H7Z" fill="black"/>
</svg>
