<svg width="24" height="24" viewBox="0 0 24 24" fill="none" xmlns="http://www.w3.org/2000/svg">
<path d="M9 4H12C13.8675 4 15.4361 5.27976 15.8766 7.01012C16.0128 7.54533 16.4477 8 17 8C17.5523 8 18.0087 7.54893 17.9177 7.00419C17.4434 4.16441 14.9745 2 12 2H9C5.68629 2 3 4.68629 3 8V16C3 19.3137 5.68629 22 9 22H12C14.9745 22 17.4434 19.8356 17.9177 16.9958C18.0087 16.4511 17.5523 16 17 16C16.4477 16 16.0128 16.4547 15.8766 16.9899C15.4361 18.7202 13.8675 20 12 20H9C6.79086 20 5 18.2091 5 16V8C5 5.79086 6.79086 4 9 4Z" fill="black"/>
<path d="M12.7071 9.70711C13.0976 9.31658 13.0976 8.68342 12.7071 8.29289C12.3166 7.90237 11.6834 7.90237 11.2929 8.29289L8.29289 11.2929C7.90237 11.6834 7.90237 12.3166 8.29289 12.7071L11.2929 15.7071C11.6834 16.0976 12.3166 16.0976 12.7071 15.7071C13.0976 15.3166 13.0976 14.6834 12.7071 14.2929L11.4142 13H20C20.5523 13 21 12.5523 21 12C21 11.4477 20.5523 11 20 11H11.4142L12.7071 9.70711Z" fill="black"/>
</svg>
