<svg width="24" height="24" viewBox="0 0 24 24" fill="none" xmlns="http://www.w3.org/2000/svg">
<path d="M9 7.00002C9.55228 7.00002 10 7.44774 10 8.00002V14C10 14.5523 9.55228 15 9 15C8.44772 15 8 14.5523 8 14V8.00002C8 7.44774 8.44772 7.00002 9 7.00002Z" fill="black"/>
<path d="M16 10C16 9.44774 15.5523 9.00002 15 9.00002C14.4477 9.00002 14 9.44774 14 10V16C14 16.5523 14.4477 17 15 17C15.5523 17 16 16.5523 16 16V10Z" fill="black"/>
<path fill-rule="evenodd" clip-rule="evenodd" d="M3 7.23609V19.382C3 20.1254 3.78231 20.6089 4.44721 20.2764L8.55279 18.2236C8.83431 18.0829 9.16569 18.0829 9.44721 18.2236L13.6584 20.3292C14.5029 20.7515 15.4971 20.7515 16.3416 20.3292L19.8944 18.5528C20.572 18.214 21 17.5215 21 16.764V4.61806C21 3.87468 20.2177 3.39118 19.5528 3.72363L15.4472 5.77642C15.1657 5.91718 14.8343 5.91718 14.5528 5.77642L10.3416 3.67084C9.49706 3.24855 8.50294 3.24855 7.65836 3.67084L4.10557 5.44724C3.428 5.78602 3 6.47855 3 7.23609ZM5 17.764L7.65836 16.4348C8.50294 16.0125 9.49706 16.0125 10.3416 16.4348L14.5528 18.5403C14.8343 18.6811 15.1657 18.6811 15.4472 18.5403L19 16.764L19 6.23609L16.3416 7.56527C15.4971 7.98756 14.5029 7.98756 13.6584 7.56527L9.44721 5.4597C9.16569 5.31894 8.83431 5.31893 8.55279 5.4597L5 7.23609L5 17.764Z" fill="black"/>
</svg>
