<svg width="24" height="24" viewBox="0 0 24 24" fill="none" xmlns="http://www.w3.org/2000/svg">
<path d="M9.31623 10.0513C8.79228 9.87667 8.22596 10.1598 8.05132 10.6838C7.87667 11.2077 8.15983 11.774 8.68377 11.9487L10.4417 12.5347L9.16795 14.4453C8.8616 14.9048 8.98577 15.5257 9.4453 15.8321C9.90483 16.1384 10.5257 16.0142 10.8321 15.5547L12 13.8028L13.1679 15.5547C13.4743 16.0142 14.0952 16.1384 14.5547 15.8321C15.0142 15.5257 15.1384 14.9048 14.8321 14.4453L13.5583 12.5347L15.3162 11.9487C15.8402 11.774 16.1233 11.2077 15.9487 10.6838C15.774 10.1598 15.2077 9.87667 14.6838 10.0513L13 10.6126V9C13 8.44772 12.5523 8 12 8C11.4477 8 11 8.44772 11 9V10.6126L9.31623 10.0513Z" fill="black"/>
<path fill-rule="evenodd" clip-rule="evenodd" d="M2 10C2 5.58172 5.58172 2 10 2H14C18.4183 2 22 5.58172 22 10V14C22 18.4183 18.4183 22 14 22H10C5.58172 22 2 18.4183 2 14V10ZM10 4H14C17.3137 4 20 6.68629 20 10V14C20 17.3137 17.3137 20 14 20H10C6.68629 20 4 17.3137 4 14V10C4 6.68629 6.68629 4 10 4Z" fill="black"/>
</svg>
