<svg width="24" height="24" viewBox="0 0 24 24" fill="none" xmlns="http://www.w3.org/2000/svg">
<path fill-rule="evenodd" clip-rule="evenodd" d="M21 18C21 20.2091 19.2091 22 17 22H7C4.79086 22 3 20.2091 3 18V6C3 3.79086 4.79086 2 7 2H14.1716C14.702 2 15.2107 2.21071 15.5858 2.58579L20.4142 7.41421C20.7893 7.78929 21 8.29799 21 8.82843V18ZM17 20H7C5.89543 20 5 19.1046 5 18V6C5 4.89543 5.89543 4 7 4H13V7C13 8.65685 14.3431 10 16 10H19V18C19 19.1046 18.1046 20 17 20ZM18.1716 8H16C15.4477 8 15 7.55228 15 7V4.82843L18.1716 8Z" fill="black"/>
</svg>
