<svg width="24" height="24" viewBox="0 0 24 24" fill="none" xmlns="http://www.w3.org/2000/svg">
<path d="M3.00003 3C2.44774 3 2.00003 3.44772 2.00003 4C2.00003 4.55228 2.44774 5 3.00003 5V6C3.00003 6.55228 3.44774 7 4.00003 7C4.55231 7 5.00003 6.55228 5.00003 6V4C5.00003 3.44772 4.55231 3 4.00003 3H3.00003Z" fill="black"/>
<path d="M8.00003 5C8.00003 4.44772 8.44774 4 9.00003 4H21C21.5523 4 22 4.44772 22 5C22 5.55228 21.5523 6 21 6H9.00003C8.44774 6 8.00003 5.55228 8.00003 5Z" fill="black"/>
<path d="M8.00003 12C8.00003 11.4477 8.44774 11 9.00003 11H21C21.5523 11 22 11.4477 22 12C22 12.5523 21.5523 13 21 13H9.00003C8.44774 13 8.00003 12.5523 8.00003 12Z" fill="black"/>
<path d="M9.00003 18C8.44774 18 8.00003 18.4477 8.00003 19C8.00003 19.5523 8.44774 20 9.00003 20H21C21.5523 20 22 19.5523 22 19C22 18.4477 21.5523 18 21 18H9.00003Z" fill="black"/>
<path d="M2.00003 11C2.00003 10.4477 2.44774 10 3.00003 10H3.29292C4.23573 10 5.00003 10.7643 5.00003 11.7071C5.00003 11.9651 4.94164 12.217 4.83219 12.4453C4.93821 12.604 5.00003 12.7948 5.00003 13C5.00003 13.5523 4.55231 14 4.00003 14H3.00003C2.59557 14 2.23093 13.7564 2.07615 13.3827C1.92137 13.009 2.00692 12.5789 2.29292 12.2929L2.64912 11.9367C2.26993 11.7946 2.00003 11.4288 2.00003 11Z" fill="black"/>
<path d="M4.00003 17H3.00003C2.44774 17 2.00003 17.4477 2.00003 18C2.00003 18.1821 2.04873 18.3529 2.13381 18.5C2.04873 18.6471 2.00003 18.8179 2.00003 19C2.00003 19.1821 2.04873 19.3529 2.13381 19.5C2.04873 19.6471 2.00003 19.8179 2.00003 20C2.00003 20.5523 2.44774 21 3.00003 21H4.00003C4.55231 21 5.00003 20.5523 5.00003 20V18C5.00003 17.4477 4.55231 17 4.00003 17Z" fill="black"/>
</svg>
