<svg width="24" height="24" viewBox="0 0 24 24" fill="none" xmlns="http://www.w3.org/2000/svg">
<path fill-rule="evenodd" clip-rule="evenodd" d="M9 12C7.34315 12 6 13.3431 6 15V16C6 17.6569 7.34315 19 9 19H15C16.6569 19 18 17.6569 18 16V15C18 13.3431 16.6569 12 15 12H9ZM8 15C8 14.4477 8.44772 14 9 14H15C15.5523 14 16 14.4477 16 15V16C16 16.5523 15.5523 17 15 17H9C8.44772 17 8 16.5523 8 16V15Z" fill="black"/>
<path fill-rule="evenodd" clip-rule="evenodd" d="M21 18V8.82843C21 8.29799 20.7893 7.78929 20.4142 7.41421L15.5858 2.58579C15.2107 2.21071 14.702 2 14.1716 2H7C4.79086 2 3 3.79086 3 6V18C3 20.2091 4.79086 22 7 22H17C19.2091 22 21 20.2091 21 18ZM7 20H17C18.1046 20 19 19.1046 19 18V10H16C14.3431 10 13 8.65685 13 7V4H7C5.89543 4 5 4.89543 5 6V18C5 19.1046 5.89543 20 7 20ZM16 8H18.1716L15 4.82843V7C15 7.55228 15.4477 8 16 8Z" fill="black"/>
</svg>
