<svg width="24" height="24" viewBox="0 0 24 24" fill="none" xmlns="http://www.w3.org/2000/svg">
<path fill-rule="evenodd" clip-rule="evenodd" d="M9 16C9 16.3688 9.20298 16.7077 9.52814 16.8817C9.8533 17.0557 10.2478 17.0366 10.5547 16.8321L16.5547 12.8321C16.8329 12.6466 17 12.3344 17 12C17 11.6656 16.8329 11.3534 16.5547 11.1679L10.5547 7.16795C10.2478 6.96338 9.8533 6.94431 9.52814 7.11833C9.20298 7.29234 9 7.6312 9 8V16ZM14.1972 12L11 14.1315V9.86852L14.1972 12Z" fill="black"/>
<path fill-rule="evenodd" clip-rule="evenodd" d="M2 10C2 5.58172 5.58172 2 10 2H14C18.4183 2 22 5.58172 22 10V14C22 18.4183 18.4183 22 14 22H10C5.58172 22 2 18.4183 2 14V10ZM10 4H14C17.3137 4 20 6.68629 20 10V14C20 17.3137 17.3137 20 14 20H10C6.68629 20 4 17.3137 4 14V10C4 6.68629 6.68629 4 10 4Z" fill="black"/>
</svg>
