<svg width="24" height="24" viewBox="0 0 24 24" fill="none" xmlns="http://www.w3.org/2000/svg">
<path d="M7 17C7 16.4477 7.44772 16 8 16C8.55228 16 9 16.4477 9 17C9 17.5523 8.55228 18 8 18C7.44772 18 7 17.5523 7 17Z" fill="black"/>
<path d="M8 12C7.44772 12 7 12.4477 7 13C7 13.5523 7.44772 14 8 14C8.55228 14 9 13.5523 9 13C9 12.4477 8.55228 12 8 12Z" fill="black"/>
<path fill-rule="evenodd" clip-rule="evenodd" d="M7 8V7C7 4.23858 9.23858 2 12 2C14.7614 2 17 4.23858 17 7V8C19.2091 8 21 9.79086 21 12V18C21 20.2091 19.2091 22 17 22H7C4.79086 22 3 20.2091 3 18V12C3 9.79086 4.79086 8 7 8ZM9 7C9 5.34315 10.3431 4 12 4C13.6569 4 15 5.34315 15 7V8H9V7ZM5 12C5 10.8954 5.89543 10 7 10H17C18.1046 10 19 10.8954 19 12V18C19 19.1046 18.1046 20 17 20H7C5.89543 20 5 19.1046 5 18V12Z" fill="black"/>
</svg>
