<svg width="24" height="24" viewBox="0 0 24 24" fill="none" xmlns="http://www.w3.org/2000/svg">
<path d="M7 11C7 10.4477 7.44772 10 8 10C8.55228 10 9 10.4477 9 11C9 11.5523 8.55228 12 8 12C7.44772 12 7 11.5523 7 11Z" fill="black"/>
<path d="M8 6C7.44772 6 7 6.44772 7 7C7 7.55228 7.44772 8 8 8C8.55228 8 9 7.55228 9 7C9 6.44772 8.55228 6 8 6Z" fill="black"/>
<path fill-rule="evenodd" clip-rule="evenodd" d="M21 17V5C21 3.34315 19.6569 2 18 2H6C4.34315 2 3 3.34315 3 5V17C3 18.6569 4.34315 20 6 20L6 21.2657C6 21.6651 6.44507 21.9033 6.77735 21.6818L6.8906 21.6063C7.5624 21.1584 8.4376 21.1584 9.1094 21.6063L9.22265 21.6818C9.55493 21.9033 10 21.6651 10 21.2657V20H18C19.6569 20 21 18.6569 21 17ZM18 4H6C5.44772 4 5 4.44772 5 5V14.1707C5.31278 14.0602 5.64936 14 6 14H18C18.3506 14 18.6872 14.0602 19 14.1707V5C19 4.44772 18.5523 4 18 4ZM19 17C19 16.4477 18.5523 16 18 16H6C5.44772 16 5 16.4477 5 17C5 17.5523 5.44772 18 6 18C6 17.4477 6.44772 17 7 17H9C9.55228 17 10 17.4477 10 18H18C18.5523 18 19 17.5523 19 17Z" fill="black"/>
</svg>
