<svg width="24" height="24" viewBox="0 0 24 24" fill="none" xmlns="http://www.w3.org/2000/svg">
<path fill-rule="evenodd" clip-rule="evenodd" d="M12 15.5C14.2091 15.5 16 13.7091 16 11.5C16 9.29086 14.2091 7.5 12 7.5C9.79086 7.5 8 9.29086 8 11.5C8 13.7091 9.79086 15.5 12 15.5ZM10 11.5C10 12.6046 10.8954 13.5 12 13.5C13.1046 13.5 14 12.6046 14 11.5C14 10.3954 13.1046 9.5 12 9.5C10.8954 9.5 10 10.3954 10 11.5Z" fill="black"/>
<path fill-rule="evenodd" clip-rule="evenodd" d="M9.25491 3.08259L8.5668 4.41557L7.66998 4.90808L6.08399 4.81587C5.33909 4.77257 4.63201 5.14753 4.24997 5.78846L3.28205 7.41226C2.88356 8.08077 2.90907 8.91974 3.34744 9.56281L4.19252 10.8025L4.19252 12.3344L3.34744 13.5741C2.90907 14.2172 2.88357 15.0562 3.28205 15.7247L4.24997 17.3485C4.63201 17.9894 5.33909 18.3644 6.08399 18.3211L7.73001 18.2254L8.5951 18.6393L9.25491 19.9174C9.59815 20.5823 10.2838 21 11.0321 21H12.9679C13.7162 21 14.4019 20.5823 14.7451 19.9174L15.4332 18.5844L16.33 18.0919L17.916 18.1841C18.6609 18.2274 19.368 17.8525 19.75 17.2115L20.7179 15.5877C21.1164 14.9192 21.0909 14.0803 20.6526 13.4372L19.8075 12.1975V10.8025L20.6526 9.56281C21.0909 8.91974 21.1164 8.08077 20.7179 7.41226L19.75 5.78846C19.368 5.14753 18.6609 4.77256 17.916 4.81587L16.33 4.90808L15.4332 4.41557L14.7451 3.08258C14.4019 2.41769 13.7162 2 12.9679 2H11.0321C10.2838 2 9.59815 2.41769 9.25491 3.08259ZM13.9358 5.875L12.9679 4L11.0321 4L10.0642 5.875L8.12835 6.9381L5.96792 6.8125L5 8.4363L6.19252 10.1857L6.19252 12.9512L5 14.7006L5.96792 16.3244L8.12835 16.1988L10.0642 17.125L11.0321 19H12.9679L13.9358 17.125L15.8717 16.0619L18.0321 16.1875L19 14.5637L17.8075 12.8143V10.1857L19 8.4363L18.0321 6.8125L15.8717 6.9381L13.9358 5.875Z" fill="black"/>
</svg>
