<svg width="24" height="24" viewBox="0 0 24 24" fill="none" xmlns="http://www.w3.org/2000/svg">
<path d="M12 5C12.5523 5 13 4.55228 13 4V3C13 2.44772 12.5523 2 12 2C11.4477 2 11 2.44772 11 3V4C11 4.55228 11.4477 5 12 5Z" fill="black"/>
<path d="M4.92891 4.92894C4.53838 5.31946 4.53838 5.95263 4.92891 6.34315L5.63602 7.05026C6.02654 7.44079 6.6597 7.44079 7.05023 7.05026C7.44075 6.65974 7.44075 6.02657 7.05023 5.63605L6.34312 4.92894C5.9526 4.53842 5.31943 4.53842 4.92891 4.92894Z" fill="black"/>
<path d="M3 13C2.44772 13 2 12.5523 2 12C2 11.4477 2.44772 11 3 11H4C4.55228 11 5 11.4477 5 12C5 12.5523 4.55228 13 4 13H3Z" fill="black"/>
<path fill-rule="evenodd" clip-rule="evenodd" d="M7.23624 13.5232C7.08281 13.0429 7 12.5311 7 12C7 9.23858 9.23858 7 12 7C13.5999 7 15.0243 7.75145 15.9395 8.92066C16.7661 8.77241 17.6363 8.82469 18.4766 9.10477C20.5807 9.80615 22 11.7753 22 13.9932V15.8787C22 17.5022 21.3551 19.0591 20.2071 20.2071C19.0591 21.3551 17.5022 22 15.8787 22H6.58114C4.60928 22 2.85865 20.7382 2.23509 18.8675L2.19692 18.753C2.06649 18.3618 2 17.952 2 17.5396C2 15.5842 3.47023 13.9416 5.4136 13.7257L7.23624 13.5232ZM17.8441 11.0021C16.4422 10.5348 14.9038 11.1039 14.1435 12.3711L14.0027 12.6058C13.1205 14.0762 11.6024 15.0503 9.8982 15.2397L5.63446 15.7134C4.70396 15.8168 4 16.6033 4 17.5396C4 17.737 4.03184 17.9332 4.09429 18.1206L4.13246 18.2351C4.48378 19.2891 5.47014 20 6.58114 20H15.8787C16.9717 20 18.02 19.5658 18.7929 18.7929C19.5658 18.02 20 16.9717 20 15.8787V13.9932C20 12.6361 19.1316 11.4313 17.8441 11.0021ZM13.9574 9.72645C13.3507 10.1369 12.8249 10.6815 12.4286 11.3421L12.2877 11.5769C11.7266 12.512 10.7612 13.1315 9.67733 13.2519L9.29295 13.2946C9.10517 12.9027 9 12.4636 9 12C9 10.3431 10.3431 9 12 9C12.748 9 13.432 9.27372 13.9574 9.72645Z" fill="black"/>
</svg>
