<svg width="24" height="24" viewBox="0 0 24 24" fill="none" xmlns="http://www.w3.org/2000/svg">
<path fill-rule="evenodd" clip-rule="evenodd" d="M17 9C18.6569 9 20 7.65685 20 6C20 4.34315 18.6569 3 17 3C15.3431 3 14 4.34315 14 6C14 6.15056 14.0111 6.29854 14.0325 6.44315L9.02181 9.78361C8.48852 9.29686 7.77893 9 7 9C5.34315 9 4 10.3431 4 12C4 13.6569 5.34315 15 7 15C7.77893 15 8.48852 14.7031 9.02181 14.2164L14.0325 17.5569C14.0111 17.7015 14 17.8494 14 18C14 19.6569 15.3431 21 17 21C18.6569 21 20 19.6569 20 18C20 16.3431 18.6569 15 17 15C16.2211 15 15.5115 15.2969 14.9782 15.7836L9.9675 12.4431C9.98891 12.2985 10 12.1506 10 12C10 11.8494 9.98891 11.7015 9.9675 11.5569L14.9782 8.21639C15.5115 8.70314 16.2211 9 17 9ZM16 6C16 6.55228 16.4477 7 17 7C17.5523 7 18 6.55228 18 6C18 5.44772 17.5523 5 17 5C16.4477 5 16 5.44772 16 6ZM16 18C16 18.5523 16.4477 19 17 19C17.5523 19 18 18.5523 18 18C18 17.4477 17.5523 17 17 17C16.4477 17 16 17.4477 16 18ZM7 13C6.44772 13 6 12.5523 6 12C6 11.4477 6.44772 11 7 11C7.55228 11 8 11.4477 8 12C8 12.5523 7.55228 13 7 13Z" fill="black"/>
</svg>
