<svg width="24" height="24" viewBox="0 0 24 24" fill="none" xmlns="http://www.w3.org/2000/svg">
<path d="M2 5C2 4.44772 2.44772 4 3 4H20C20.5523 4 21 4.44772 21 5C21 5.55228 20.5523 6 20 6H3C2.44771 6 2 5.55228 2 5Z" fill="black"/>
<path d="M2 17C2 16.4477 2.44772 16 3 16H11C11.5523 16 12 16.4477 12 17C12 17.5523 11.5523 18 11 18H3C2.44772 18 2 17.5523 2 17Z" fill="black"/>
<path d="M3 10C2.44772 10 2 10.4477 2 11C2 11.5523 2.44772 12 3 12H13C13.5523 12 14 11.5523 14 11C14 10.4477 13.5523 10 13 10H3Z" fill="black"/>
<path d="M15.7071 16.2929C15.3166 15.9024 14.6834 15.9024 14.2929 16.2929C13.9024 16.6834 13.9024 17.3166 14.2929 17.7071L17.2929 20.7071C17.6834 21.0976 18.3166 21.0976 18.7071 20.7071L21.7071 17.7071C22.0976 17.3166 22.0976 16.6834 21.7071 16.2929C21.3166 15.9024 20.6834 15.9024 20.2929 16.2929L19 17.5858V9C19 8.44772 18.5523 8 18 8C17.4477 8 17 8.44771 17 9V17.5858L15.7071 16.2929Z" fill="black"/>
</svg>
