<svg width="24" height="24" viewBox="0 0 24 24" fill="none" xmlns="http://www.w3.org/2000/svg">
<path fill-rule="evenodd" clip-rule="evenodd" d="M10 7C8.34315 7 7 8.34315 7 10V14C7 15.6569 8.34315 17 10 17H14C15.6569 17 17 15.6569 17 14V10C17 8.34315 15.6569 7 14 7H10ZM9 10C9 9.44772 9.44772 9 10 9H14C14.5523 9 15 9.44772 15 10V14C15 14.5523 14.5523 15 14 15H10C9.44772 15 9 14.5523 9 14V10Z" fill="black"/>
<path fill-rule="evenodd" clip-rule="evenodd" d="M2 10C2 5.58172 5.58172 2 10 2H14C18.4183 2 22 5.58172 22 10V14C22 18.4183 18.4183 22 14 22H10C5.58172 22 2 18.4183 2 14V10ZM10 4H14C17.3137 4 20 6.68629 20 10V14C20 17.3137 17.3137 20 14 20H10C6.68629 20 4 17.3137 4 14V10C4 6.68629 6.68629 4 10 4Z" fill="black"/>
</svg>
