<svg width="24" height="24" viewBox="0 0 24 24" fill="none" xmlns="http://www.w3.org/2000/svg">
<path d="M12 5C12.5523 5 13 4.55228 13 4V3C13 2.44772 12.5523 2 12 2C11.4477 2 11 2.44772 11 3V4C11 4.55228 11.4477 5 12 5Z" fill="black"/>
<path d="M4.92891 6.34315C4.53838 5.95263 4.53838 5.31946 4.92891 4.92894C5.31943 4.53842 5.9526 4.53842 6.34312 4.92894L7.05023 5.63605C7.44075 6.02657 7.44075 6.65974 7.05023 7.05026C6.6597 7.44079 6.02654 7.44079 5.63602 7.05026L4.92891 6.34315Z" fill="black"/>
<path d="M18.364 7.05028L19.0711 6.34317C19.4616 5.95265 19.4616 5.31948 19.0711 4.92896C18.6805 4.53843 18.0474 4.53843 17.6569 4.92896L16.9498 5.63606C16.5592 6.02659 16.5592 6.65975 16.9498 7.05028C17.3403 7.4408 17.9734 7.4408 18.364 7.05028Z" fill="black"/>
<path fill-rule="evenodd" clip-rule="evenodd" d="M17 12C17 14.7614 14.7614 17 12 17C9.23858 17 7 14.7614 7 12C7 9.23858 9.23858 7 12 7C14.7614 7 17 9.23858 17 12ZM12 15C10.3431 15 9 13.6569 9 12C9 10.3431 10.3431 9 12 9C13.6569 9 15 10.3431 15 12C15 13.6569 13.6569 15 12 15Z" fill="black"/>
<path d="M7.0502 18.364L6.34309 19.0711C5.95257 19.4616 5.3194 19.4616 4.92888 19.0711C4.53836 18.6806 4.53836 18.0474 4.92888 17.6569L5.63599 16.9498C6.02651 16.5592 6.65968 16.5592 7.0502 16.9498C7.44072 17.3403 7.44072 17.9735 7.0502 18.364Z" fill="black"/>
<path d="M16.9498 16.9498C16.5593 17.3403 16.5593 17.9734 16.9498 18.364L17.6569 19.0711C18.0474 19.4616 18.6806 19.4616 19.0711 19.0711C19.4616 18.6805 19.4616 18.0474 19.0711 17.6569L18.364 16.9498C17.9735 16.5592 17.3403 16.5592 16.9498 16.9498Z" fill="black"/>
<path d="M13 21C13 21.5523 12.5523 22 12 22C11.4477 22 11 21.5523 11 21V20C11 19.4477 11.4477 19 12 19C12.5523 19 13 19.4477 13 20V21Z" fill="black"/>
<path d="M19 12C19 12.5523 19.4477 13 20 13H21C21.5523 13 22 12.5523 22 12C22 11.4477 21.5523 11 21 11H20C19.4477 11 19 11.4477 19 12Z" fill="black"/>
<path d="M3 13C2.44772 13 2 12.5523 2 12C2 11.4477 2.44772 11 3 11H4C4.55228 11 5 11.4477 5 12C5 12.5523 4.55228 13 4 13H3Z" fill="black"/>
</svg>
