<svg width="24" height="24" viewBox="0 0 24 24" fill="none" xmlns="http://www.w3.org/2000/svg">
<path fill-rule="evenodd" clip-rule="evenodd" d="M12.3579 4.34205C14.5687 3.08144 17.4021 3.84064 18.6865 6.03777C19.9708 8.2349 19.2197 11.0379 17.0089 12.2986L16.9288 12.3442C17.6194 14.3716 16.8029 16.6594 14.8662 17.7637L10.0626 20.5027C7.85173 21.7633 5.01835 21.0041 3.73402 18.807C2.4497 16.6099 3.20077 13.8068 5.41159 12.5462L5.49167 12.5006C4.80111 10.4732 5.61762 8.18535 7.55426 7.08108L12.3579 4.34205ZM9.13236 18.9114L13.936 16.1724C15.2625 15.416 15.7132 13.7342 14.9426 12.4159C14.1727 11.099 12.4753 10.643 11.1494 11.3962L10.3448 11.855C10.2896 11.8865 10.2323 11.9117 10.174 11.9308C9.76584 12.0647 9.30389 11.9003 9.07913 11.5158C8.82227 11.0764 8.97248 10.5158 9.41464 10.2637L10.2153 9.80718C10.2171 9.80615 10.2189 9.80513 10.2206 9.80411L14.2183 7.52465C14.6605 7.27253 15.2271 7.42437 15.484 7.8638C15.7409 8.30323 15.5907 8.86384 15.1485 9.11596L14.3482 9.57229C14.9682 9.83553 15.5349 10.2335 15.9986 10.7529L16.0787 10.7073C17.4052 9.95089 17.8558 8.26906 17.0852 6.95078C16.3146 5.6325 14.6146 5.17698 13.2881 5.93335L8.48445 8.67238C7.15796 9.42875 6.70731 11.1106 7.47791 12.4289C8.24851 13.7471 9.94853 14.2027 11.275 13.4463L12.0756 12.9898C12.5178 12.7377 13.0845 12.8895 13.3413 13.3289C13.4301 13.4808 13.4703 13.6473 13.4665 13.8104C13.4595 14.1191 13.2951 14.4162 13.0058 14.5811L8.20217 17.3202C7.76 17.5723 7.19333 17.4205 6.93646 16.981C6.6796 16.5416 6.82981 15.981 7.27198 15.7289L8.07235 15.2725C7.45228 15.0093 6.8856 14.6113 6.42186 14.0919L6.34178 14.1375C5.01529 14.8939 4.56465 16.5757 5.33524 17.894C6.10584 19.2123 7.80586 19.6678 9.13236 18.9114Z" fill="black"/>
</svg>
