<svg width="24" height="24" viewBox="0 0 24 24" fill="none" xmlns="http://www.w3.org/2000/svg">
<path d="M11 12C11 11.4477 11.4477 11 12 11H15C15.5523 11 16 11.4477 16 12C16 12.5523 15.5523 13 15 13H12C11.4477 13 11 12.5523 11 12Z" fill="black"/>
<path d="M6.29289 11.2929C5.90237 11.6834 5.90237 12.3166 6.29289 12.7071C6.68342 13.0976 7.31658 13.0976 7.70711 12.7071L9.70711 10.7071C10.0976 10.3166 10.0976 9.68342 9.70711 9.29289L7.70711 7.29289C7.31658 6.90237 6.68342 6.90237 6.29289 7.29289C5.90237 7.68342 5.90237 8.31658 6.29289 8.70711L7.58579 10L6.29289 11.2929Z" fill="black"/>
<path fill-rule="evenodd" clip-rule="evenodd" d="M6 3C3.79086 3 2 4.79086 2 7V17C2 19.2091 3.79086 21 6 21H18C20.2091 21 22 19.2091 22 17V7C22 4.79086 20.2091 3 18 3H6ZM18 5H6C4.89543 5 4 5.89543 4 7V17C4 18.1046 4.89543 19 6 19H18C19.1046 19 20 18.1046 20 17V7C20 5.89543 19.1046 5 18 5Z" fill="black"/>
</svg>
