<svg width="24" height="24" viewBox="0 0 24 24" fill="none" xmlns="http://www.w3.org/2000/svg">
<path d="M16.1213 7.53554C14.9498 6.36397 13.0503 6.36397 11.8787 7.53554L10.7071 8.70711C10.3166 9.09764 9.68342 9.09764 9.2929 8.70711C8.90238 8.31659 8.90238 7.68342 9.2929 7.2929L10.4645 6.12133C12.4171 4.1687 15.5829 4.16871 17.5355 6.12133L17.8787 6.46447C19.8313 8.41709 19.8313 11.5829 17.8787 13.5355L16.7071 14.7071C16.3166 15.0976 15.6834 15.0976 15.2929 14.7071C14.9024 14.3166 14.9024 13.6834 15.2929 13.2929L16.4645 12.1213C17.636 10.9498 17.636 9.05026 16.4645 7.87868L16.1213 7.53554Z" fill="black"/>
<path d="M13.7071 10.2929C14.0976 10.6834 14.0976 11.3166 13.7071 11.7071L10.7071 14.7071C10.3166 15.0976 9.68342 15.0976 9.2929 14.7071C8.90238 14.3166 8.90238 13.6834 9.2929 13.2929L12.2929 10.2929C12.6834 9.90238 13.3166 9.90238 13.7071 10.2929Z" fill="black"/>
<path d="M11.1213 17.4645C9.94975 18.636 8.05026 18.636 6.87869 17.4645L6.53554 17.1213C5.36397 15.9498 5.36397 14.0503 6.53554 12.8787L7.70711 11.7071C8.09764 11.3166 8.09764 10.6834 7.70711 10.2929C7.31659 9.90238 6.68342 9.90238 6.2929 10.2929L5.12133 11.4645C3.1687 13.4171 3.16871 16.5829 5.12133 18.5355L5.46447 18.8787C7.41709 20.8313 10.5829 20.8313 12.5355 18.8787L13.7071 17.7071C14.0976 17.3166 14.0976 16.6834 13.7071 16.2929C13.3166 15.9024 12.6834 15.9024 12.2929 16.2929L11.1213 17.4645Z" fill="black"/>
<path d="M15 18.7929V16.5C15 16.2239 15.2239 16 15.5 16H17.7929C18.2384 16 18.4614 16.5386 18.1465 16.8536L15.8536 19.1465C15.5386 19.4614 15 19.2384 15 18.7929Z" fill="black"/>
<path d="M7.50001 9.00001H5.20711C4.76166 9.00001 4.53858 8.46144 4.85356 8.14645L7.14645 5.85356C7.46144 5.53858 8.00001 5.76166 8.00001 6.20711V8.50001C8.00001 8.77615 7.77615 9.00001 7.50001 9.00001Z" fill="black"/>
</svg>
