<svg width="24" height="24" viewBox="0 0 24 24" fill="none" xmlns="http://www.w3.org/2000/svg">
<path d="M13 11V14C13 14.5523 12.5523 15 12 15C11.4477 15 11 14.5523 11 14V11C11 10.4477 11.4477 9.99997 12 9.99997C12.5523 9.99997 13 10.4477 13 11Z" fill="black"/>
<path d="M12 18C12.5523 18 13 17.5523 13 17C13 16.4477 12.5523 16 12 16C11.4477 16 11 16.4477 11 17C11 17.5523 11.4477 18 12 18Z" fill="black"/>
<path fill-rule="evenodd" clip-rule="evenodd" d="M14.6337 4.8284C13.4966 2.74381 10.5034 2.74381 9.3663 4.8284L2.41993 17.5634C1.3295 19.5625 2.77644 22 5.05362 22H18.9464C21.2235 22 22.6705 19.5625 21.58 17.5634L14.6337 4.8284ZM19.8243 18.5211L12.8779 5.7861C12.4989 5.09124 11.5011 5.09124 11.1221 5.7861L4.17572 18.5211C3.81224 19.1875 4.29456 20 5.05362 20H18.9464C19.7054 20 20.1877 19.1875 19.8243 18.5211Z" fill="black"/>
</svg>
